<mxfile host="Electron" modified="2023-05-01T05:46:27.660Z" agent="Mozilla/5.0 (Windows NT 10.0; Win64; x64) AppleWebKit/537.36 (KHTML, like Gecko) draw.io/21.1.2 Chrome/106.0.5249.199 Electron/21.4.3 Safari/537.36" etag="hREY8ozMQyqZT387o51I" version="21.1.2" type="device">
  <diagram name="第 1 页" id="-Q7SGM4bVH4ZW2NhLcrU">
    <mxGraphModel dx="556" dy="732" grid="1" gridSize="10" guides="1" tooltips="1" connect="1" arrows="1" fold="1" page="1" pageScale="1" pageWidth="1169" pageHeight="827" math="0" shadow="0">
      <root>
        <mxCell id="0" />
        <mxCell id="1" parent="0" />
        <mxCell id="yDWPOPm3pdQekAEREkb4-18" value="" style="rounded=0;whiteSpace=wrap;html=1;" parent="1" vertex="1">
          <mxGeometry x="1160" y="214" width="240" height="361" as="geometry" />
        </mxCell>
        <mxCell id="yDWPOPm3pdQekAEREkb4-19" value="free large chunk" style="text;html=1;align=center;verticalAlign=middle;resizable=0;points=[];autosize=1;strokeColor=none;fillColor=none;strokeWidth=3;fontSize=23;" parent="1" vertex="1">
          <mxGeometry x="1185" y="160" width="190" height="40" as="geometry" />
        </mxCell>
        <mxCell id="yDWPOPm3pdQekAEREkb4-20" value="prev size" style="rounded=0;whiteSpace=wrap;html=1;fontSize=22;" parent="1" vertex="1">
          <mxGeometry x="1160" y="214" width="240" height="41" as="geometry" />
        </mxCell>
        <mxCell id="yDWPOPm3pdQekAEREkb4-21" value="size" style="rounded=0;whiteSpace=wrap;html=1;fontSize=22;" parent="1" vertex="1">
          <mxGeometry x="1160" y="254" width="240" height="41" as="geometry" />
        </mxCell>
        <mxCell id="yDWPOPm3pdQekAEREkb4-22" value="A" style="rounded=0;whiteSpace=wrap;html=1;" parent="1" vertex="1">
          <mxGeometry x="1310" y="254" width="30" height="41" as="geometry" />
        </mxCell>
        <mxCell id="yDWPOPm3pdQekAEREkb4-23" value="M" style="rounded=0;whiteSpace=wrap;html=1;" parent="1" vertex="1">
          <mxGeometry x="1340" y="254" width="30" height="41" as="geometry" />
        </mxCell>
        <mxCell id="yDWPOPm3pdQekAEREkb4-24" value="P" style="rounded=0;whiteSpace=wrap;html=1;" parent="1" vertex="1">
          <mxGeometry x="1370" y="254" width="30" height="41" as="geometry" />
        </mxCell>
        <mxCell id="yDWPOPm3pdQekAEREkb4-25" value="fd" style="rounded=0;whiteSpace=wrap;html=1;fontSize=22;" parent="1" vertex="1">
          <mxGeometry x="1160" y="295" width="240" height="41" as="geometry" />
        </mxCell>
        <mxCell id="yDWPOPm3pdQekAEREkb4-26" value="bk" style="rounded=0;whiteSpace=wrap;html=1;fontSize=22;" parent="1" vertex="1">
          <mxGeometry x="1160" y="336" width="240" height="41" as="geometry" />
        </mxCell>
        <mxCell id="yDWPOPm3pdQekAEREkb4-27" value="fd_nextsize" style="rounded=0;whiteSpace=wrap;html=1;fontSize=22;" parent="1" vertex="1">
          <mxGeometry x="1160" y="377" width="240" height="41" as="geometry" />
        </mxCell>
        <mxCell id="yDWPOPm3pdQekAEREkb4-28" value="bk_nextsize" style="rounded=0;whiteSpace=wrap;html=1;fontSize=22;" parent="1" vertex="1">
          <mxGeometry x="1160" y="418" width="240" height="41" as="geometry" />
        </mxCell>
        <mxCell id="yDWPOPm3pdQekAEREkb4-30" value="fastbins是以单链表的形式存放的，其他的bins都是以双链表形式存放的。" style="text;html=1;align=center;verticalAlign=middle;resizable=0;points=[];autosize=1;strokeColor=none;fillColor=none;fontSize=16;fontStyle=1" parent="1" vertex="1">
          <mxGeometry x="60" y="20" width="550" height="30" as="geometry" />
        </mxCell>
        <mxCell id="yDWPOPm3pdQekAEREkb4-32" value="" style="rounded=0;whiteSpace=wrap;html=1;" parent="1" vertex="1">
          <mxGeometry x="530" y="214" width="240" height="361" as="geometry" />
        </mxCell>
        <mxCell id="yDWPOPm3pdQekAEREkb4-33" value="fastbins&amp;nbsp;free chunk" style="text;html=1;align=center;verticalAlign=middle;resizable=0;points=[];autosize=1;strokeColor=none;fillColor=none;strokeWidth=3;fontSize=23;" parent="1" vertex="1">
          <mxGeometry x="540" y="160" width="220" height="40" as="geometry" />
        </mxCell>
        <mxCell id="yDWPOPm3pdQekAEREkb4-34" value="prev size" style="rounded=0;whiteSpace=wrap;html=1;fontSize=22;" parent="1" vertex="1">
          <mxGeometry x="530" y="214" width="240" height="41" as="geometry" />
        </mxCell>
        <mxCell id="yDWPOPm3pdQekAEREkb4-35" value="size" style="rounded=0;whiteSpace=wrap;html=1;fontSize=22;" parent="1" vertex="1">
          <mxGeometry x="530" y="254" width="240" height="41" as="geometry" />
        </mxCell>
        <mxCell id="yDWPOPm3pdQekAEREkb4-36" value="A" style="rounded=0;whiteSpace=wrap;html=1;" parent="1" vertex="1">
          <mxGeometry x="680" y="254" width="30" height="41" as="geometry" />
        </mxCell>
        <mxCell id="yDWPOPm3pdQekAEREkb4-37" value="M" style="rounded=0;whiteSpace=wrap;html=1;" parent="1" vertex="1">
          <mxGeometry x="710" y="254" width="30" height="41" as="geometry" />
        </mxCell>
        <mxCell id="yDWPOPm3pdQekAEREkb4-38" value="1" style="rounded=0;whiteSpace=wrap;html=1;" parent="1" vertex="1">
          <mxGeometry x="740" y="254" width="30" height="41" as="geometry" />
        </mxCell>
        <mxCell id="yDWPOPm3pdQekAEREkb4-39" value="fd" style="rounded=0;whiteSpace=wrap;html=1;fontSize=22;" parent="1" vertex="1">
          <mxGeometry x="530" y="295" width="240" height="41" as="geometry" />
        </mxCell>
        <mxCell id="yDWPOPm3pdQekAEREkb4-43" value="" style="rounded=0;whiteSpace=wrap;html=1;" parent="1" vertex="1">
          <mxGeometry x="850" y="214" width="240" height="361" as="geometry" />
        </mxCell>
        <mxCell id="yDWPOPm3pdQekAEREkb4-44" value="smallbin free chunk" style="text;html=1;align=center;verticalAlign=middle;resizable=0;points=[];autosize=1;strokeColor=none;fillColor=none;strokeWidth=3;fontSize=23;" parent="1" vertex="1">
          <mxGeometry x="860" y="160" width="220" height="40" as="geometry" />
        </mxCell>
        <mxCell id="yDWPOPm3pdQekAEREkb4-45" value="prev size" style="rounded=0;whiteSpace=wrap;html=1;fontSize=22;" parent="1" vertex="1">
          <mxGeometry x="850" y="214" width="240" height="41" as="geometry" />
        </mxCell>
        <mxCell id="yDWPOPm3pdQekAEREkb4-46" value="size" style="rounded=0;whiteSpace=wrap;html=1;fontSize=22;" parent="1" vertex="1">
          <mxGeometry x="850" y="254" width="240" height="41" as="geometry" />
        </mxCell>
        <mxCell id="yDWPOPm3pdQekAEREkb4-47" value="A" style="rounded=0;whiteSpace=wrap;html=1;" parent="1" vertex="1">
          <mxGeometry x="1000" y="254" width="30" height="41" as="geometry" />
        </mxCell>
        <mxCell id="yDWPOPm3pdQekAEREkb4-48" value="M" style="rounded=0;whiteSpace=wrap;html=1;" parent="1" vertex="1">
          <mxGeometry x="1030" y="254" width="30" height="41" as="geometry" />
        </mxCell>
        <mxCell id="yDWPOPm3pdQekAEREkb4-49" value="P" style="rounded=0;whiteSpace=wrap;html=1;" parent="1" vertex="1">
          <mxGeometry x="1060" y="254" width="30" height="41" as="geometry" />
        </mxCell>
        <mxCell id="yDWPOPm3pdQekAEREkb4-50" value="fd" style="rounded=0;whiteSpace=wrap;html=1;fontSize=22;" parent="1" vertex="1">
          <mxGeometry x="850" y="295" width="240" height="41" as="geometry" />
        </mxCell>
        <mxCell id="yDWPOPm3pdQekAEREkb4-51" value="bk" style="rounded=0;whiteSpace=wrap;html=1;fontSize=22;" parent="1" vertex="1">
          <mxGeometry x="850" y="336" width="240" height="41" as="geometry" />
        </mxCell>
        <mxCell id="cbxGzTwGuu2aVbhpjkiq-10" value="" style="rounded=0;whiteSpace=wrap;html=1;" vertex="1" parent="1">
          <mxGeometry x="210" y="214" width="240" height="361" as="geometry" />
        </mxCell>
        <mxCell id="cbxGzTwGuu2aVbhpjkiq-11" value="malloc_chunk" style="text;html=1;align=center;verticalAlign=middle;resizable=0;points=[];autosize=1;strokeColor=none;fillColor=none;strokeWidth=3;fontSize=23;" vertex="1" parent="1">
          <mxGeometry x="250" y="160" width="160" height="40" as="geometry" />
        </mxCell>
        <mxCell id="cbxGzTwGuu2aVbhpjkiq-12" value="prev size" style="rounded=0;whiteSpace=wrap;html=1;fontSize=22;" vertex="1" parent="1">
          <mxGeometry x="210" y="214" width="240" height="41" as="geometry" />
        </mxCell>
        <mxCell id="cbxGzTwGuu2aVbhpjkiq-13" value="size" style="rounded=0;whiteSpace=wrap;html=1;fontSize=22;" vertex="1" parent="1">
          <mxGeometry x="210" y="254" width="240" height="41" as="geometry" />
        </mxCell>
        <mxCell id="cbxGzTwGuu2aVbhpjkiq-14" value="A" style="rounded=0;whiteSpace=wrap;html=1;" vertex="1" parent="1">
          <mxGeometry x="360" y="254" width="30" height="41" as="geometry" />
        </mxCell>
        <mxCell id="cbxGzTwGuu2aVbhpjkiq-15" value="M" style="rounded=0;whiteSpace=wrap;html=1;" vertex="1" parent="1">
          <mxGeometry x="390" y="254" width="30" height="41" as="geometry" />
        </mxCell>
        <mxCell id="cbxGzTwGuu2aVbhpjkiq-16" value="P" style="rounded=0;whiteSpace=wrap;html=1;" vertex="1" parent="1">
          <mxGeometry x="420" y="254" width="30" height="41" as="geometry" />
        </mxCell>
        <mxCell id="cbxGzTwGuu2aVbhpjkiq-20" value="Data" style="whiteSpace=wrap;html=1;fontStyle=0;fontSize=22;" vertex="1" parent="1">
          <mxGeometry x="210" y="295" width="240" height="280" as="geometry" />
        </mxCell>
        <mxCell id="cbxGzTwGuu2aVbhpjkiq-21" value="" style="whiteSpace=wrap;html=1;fontStyle=0;fontSize=22;" vertex="1" parent="1">
          <mxGeometry x="530" y="336" width="240" height="239" as="geometry" />
        </mxCell>
        <mxCell id="cbxGzTwGuu2aVbhpjkiq-22" value="" style="whiteSpace=wrap;html=1;fontStyle=0;fontSize=22;" vertex="1" parent="1">
          <mxGeometry x="850" y="377" width="240" height="198" as="geometry" />
        </mxCell>
        <mxCell id="cbxGzTwGuu2aVbhpjkiq-23" value="" style="whiteSpace=wrap;html=1;fontStyle=0;fontSize=22;" vertex="1" parent="1">
          <mxGeometry x="1160" y="459" width="240" height="116" as="geometry" />
        </mxCell>
        <mxCell id="cbxGzTwGuu2aVbhpjkiq-24" value="低地址" style="text;html=1;align=center;verticalAlign=middle;resizable=0;points=[];autosize=1;strokeColor=none;fillColor=none;fontSize=22;" vertex="1" parent="1">
          <mxGeometry x="120" y="200" width="90" height="40" as="geometry" />
        </mxCell>
        <mxCell id="cbxGzTwGuu2aVbhpjkiq-25" value="高地址" style="text;html=1;align=center;verticalAlign=middle;resizable=0;points=[];autosize=1;strokeColor=none;fillColor=none;fontSize=22;" vertex="1" parent="1">
          <mxGeometry x="120" y="550" width="90" height="40" as="geometry" />
        </mxCell>
      </root>
    </mxGraphModel>
  </diagram>
</mxfile>
